<svg data-v-423bf9ae="" xmlns="http://www.w3.org/2000/svg" viewBox="0 0 293.6004821264063 60" class="font"><!----><!----><!----><g data-v-423bf9ae="" id="610b18b0-633d-405c-b2e3-e573cdf30954" fill="white" transform="matrix(3.8784741606680333,0,0,3.8784741606680333,-0.42663426652421776,-3.8009042745935417)"><path d="M0.11 3.36L2.86 3.36L2.86 12.60L5.49 12.60L5.49 3.36L8.23 3.36L8.23 1.05L0.11 1.05ZM18.05 12.60L20.96 12.60L24.25 1.05L21.34 1.05L19.36 8.97L19.29 8.97L17.19 1.05L15.20 1.05L13.10 8.97L13.03 8.97L11.06 1.05L8.13 1.05L11.42 12.60L14.35 12.60L16.20 6.12ZM28.70 1.05L28.70 12.60L32.05 12.60C35.22 12.60 37.87 10.19 37.87 6.82C37.87 3.46 35.21 1.05 32.05 1.05ZM31.33 10.25L31.33 3.40L31.74 3.40C33.70 3.40 35.03 4.90 35.03 6.83C35.01 8.76 33.68 10.25 31.74 10.25ZM46.30 9.35C46.31 9.27 46.31 9.11 46.31 9.02C46.31 6.50 44.65 5.21 42.46 5.21C40.29 5.21 38.51 6.92 38.51 9.02C38.51 11.10 40.29 12.81 42.46 12.81C44.06 12.81 45.37 12.29 46.19 10.93L44.39 10.04C43.79 10.68 43.44 10.84 42.64 10.84C42.01 10.84 41.09 10.46 41.09 9.35ZM41.16 7.98C41.20 7.32 41.68 6.82 42.53 6.82C43.26 6.82 43.78 7.22 43.89 7.98ZM50.54 5.21C48.65 5.21 47.40 6.05 47.40 7.52C47.40 8.60 48.13 9.10 48.86 9.48C49.67 9.90 50.46 9.94 50.46 10.46C50.46 10.93 50.04 10.98 49.69 10.98C48.89 10.98 47.91 10.15 47.91 10.15L46.90 11.84C46.90 11.84 47.94 12.81 49.67 12.81C51.14 12.81 53.07 12.47 53.07 10.36C53.07 8.89 51.84 8.36 50.89 8.06C50.27 7.87 49.77 7.76 49.77 7.38C49.77 7.04 49.99 6.94 50.54 6.94C51.30 6.94 52.14 7.39 52.14 7.39L52.95 5.77C52.95 5.77 51.93 5.21 50.54 5.21ZM55.58 0.98C54.77 0.98 54.11 1.64 54.11 2.45C54.11 3.26 54.77 3.92 55.58 3.92C56.39 3.92 57.05 3.26 57.05 2.45C57.05 1.64 56.39 0.98 55.58 0.98ZM54.31 5.42L56.78 5.42L56.78 12.60L54.31 12.60ZM58.21 14.36C58.97 16.11 60.69 16.45 62.19 16.45C64.64 16.45 66.42 15.20 66.42 12.80L66.42 5.42L63.94 5.42L63.94 6.06L63.90 6.06C63.31 5.52 62.54 5.21 61.59 5.21C59.49 5.21 58.02 6.92 58.02 9.02C58.02 11.12 59.49 12.81 61.59 12.81C62.57 12.81 63.41 12.67 63.94 12.08L63.94 12.61C63.94 13.89 62.87 14.29 62.19 14.29C61.11 14.29 60.51 13.80 60.24 13.37ZM60.65 9.02C60.65 8.02 61.39 7.32 62.33 7.32C63.25 7.32 63.99 8.02 63.99 9.02C63.99 10.00 63.29 10.70 62.33 10.70C61.32 10.70 60.65 10.00 60.65 9.02ZM68.10 12.60L70.57 12.60L70.57 8.54C70.57 7.83 71.30 7.14 72.04 7.14C72.84 7.14 73.33 7.83 73.33 8.54L73.33 12.60L75.81 12.60L75.81 7.87C75.81 5.87 73.98 5.21 72.66 5.21C71.88 5.21 71.16 5.61 70.60 6.17L70.57 6.17L70.57 5.42L68.10 5.42Z"></path></g><!----><!----></svg>